<?xml version="1.0" standalone="no"?>
<!DOCTYPE svg PUBLIC "-//W3C//DTD SVG 20010904//EN"
 "http://www.w3.org/TR/2001/REC-SVG-20010904/DTD/svg10.dtd">
<svg version="1.0" xmlns="http://www.w3.org/2000/svg"
 width="512.000000pt" height="512.000000pt" viewBox="0 0 512.000000 512.000000"
 preserveAspectRatio="xMidYMid meet">
<metadata>
Created by potrace 1.14, written by Peter Selinger 2001-2017
</metadata>
<g transform="translate(0.000000,512.000000) scale(0.100000,-0.100000)"
fill="#000000" stroke="none">
<path d="M401 5100 c-90 -33 -152 -88 -198 -179 l-28 -56 0 -2305 0 -2305 28
-56 c36 -72 96 -132 166 -167 l56 -27 1280 0 1280 0 55 26 c98 47 163 124 190
223 11 40 13 447 13 2300 0 1238 -3 2268 -7 2289 -16 98 -97 200 -196 246
l-55 26 -1265 2 c-1227 2 -1267 2 -1319 -17z"/>
<path d="M4185 4864 c-5 -1 -26 -5 -46 -8 -20 -4 -49 -19 -65 -34 -17 -15
-144 -207 -284 -427 -139 -220 -276 -436 -305 -480 -65 -103 -73 -121 -69
-173 3 -53 34 -104 81 -133 33 -20 50 -23 187 -24 l151 -1 0 -1024 0 -1024
-151 -1 c-158 -1 -178 -6 -225 -55 -39 -40 -55 -106 -37 -159 9 -30 96 -172
283 -461 113 -177 282 -443 302 -476 67 -116 153 -153 248 -108 42 20 61 45
180 233 39 61 102 160 140 220 39 60 106 166 150 235 44 70 108 170 142 224
35 53 68 112 74 130 24 73 -14 162 -86 200 -23 12 -65 16 -180 16 l-150 1 -1
1023 c-1 732 2 1022 10 1023 6 1 74 2 151 3 174 3 205 16 249 103 35 69 23
105 -91 283 -44 69 -117 184 -162 255 -263 415 -365 572 -383 592 -20 22 -93
52 -113 47z"/>
</g>
</svg>
